<?xml version="1.0" ?><svg id="Illustration" style="enable-background:new 0 0 1000 1000;" version="1.1" viewBox="0 0 1000 1000" xml:space="preserve" xmlns="http://www.w3.org/2000/svg" xmlns:xlink="http://www.w3.org/1999/xlink"><style type="text/css">
	.st0{fill:#F2E9E9;}
	.st1{fill:none;stroke:#E6D8D6;stroke-width:8;stroke-linecap:round;stroke-linejoin:round;stroke-miterlimit:10;}
	.st2{fill:#FFFFFF;}
	.st3{fill:#E6D8D6;}
	.st4{fill:none;stroke:#E6D8D6;stroke-width:2;stroke-linecap:round;stroke-linejoin:round;stroke-miterlimit:10;}
	.st5{fill:#824C4C;}
	.st6{fill:#4BB4AD;}
	.st7{fill:none;stroke:#258A86;stroke-width:2;stroke-linecap:round;stroke-linejoin:round;stroke-miterlimit:10;}
	.st8{fill:none;stroke:#FFFFFF;stroke-width:2;stroke-linecap:round;stroke-linejoin:round;stroke-miterlimit:10;}
	.st9{fill:#FFDD4D;}
	.st10{fill:#F1AF78;}
	.st11{fill:none;stroke:#CC7940;stroke-width:2;stroke-linecap:round;stroke-linejoin:round;stroke-miterlimit:10;}
	.st12{fill:#FE434C;}
	.st13{fill:#303E4E;}
	.st14{fill:#D47B75;}
	.st15{fill:none;stroke:#303E4E;stroke-width:4;stroke-linecap:round;stroke-linejoin:round;stroke-miterlimit:10;}
	.st16{fill:#EFA48F;}
	.st17{fill:none;stroke:#D47B75;stroke-width:1.5;stroke-linecap:round;stroke-linejoin:round;stroke-miterlimit:10;}
	.st18{fill:#FBFAFF;}
	.st19{fill:none;stroke:#303E4E;stroke-width:2;stroke-linecap:round;stroke-linejoin:round;stroke-miterlimit:10;}
	.st20{fill:#E1283A;}
	.st21{fill:none;stroke:#FE434C;stroke-width:2;stroke-linecap:round;stroke-linejoin:round;stroke-miterlimit:10;}
	.st22{fill:none;stroke:#E1283A;stroke-width:2;stroke-linecap:round;stroke-linejoin:round;stroke-miterlimit:10;}
</style><g id="street_background"><path class="st0" d="M874.992249,818.673279c0,0,76.034241-81.303284,50.682434-210.80127   c-23.882751-121.993927-73.303284-133.750946-111.407776-239.201294   c-38.104553-105.450378,36.22644-161.216492-44.575806-232.627899c-69.121338-61.08802-205.383667-33.549942-273.698181,26.088272   c-55.351532,48.321579-134.753235,7.794266-208.835663,93.321777c-51.032791,58.916946-30.37149,123.614975-78.614258,195.343887   c-33.404694,49.667145-94.281937,91.437927-112.938545,154.768616   c-41.068901,139.410278,67.748497,186.079468,67.748497,186.079468L874.992249,818.673279z"/><g><path class="st1" d="M99.334076,623.724426c0,0,272.44278-88.045471,815.336914-34.641235"/><line class="st1" x1="903.610596" x2="897.640137" y1="590.331787" y2="725.478088"/><line class="st1" x1="852.16803" x2="846.227905" y1="583.983948" y2="720.669189"/><line class="st1" x1="798.849976" x2="796.859131" y1="578.90155" y2="716.405884"/><line class="st1" x1="753.888" x2="748.542297" y1="580.864868" y2="716.405884"/><line class="st1" x1="643.709839" x2="649.237244" y1="578.794312" y2="702.992188"/><line class="st1" x1="550.609009" x2="556.592529" y1="577.943176" y2="706.799316"/><line class="st1" x1="506.049286" x2="512.896484" y1="576.953308" y2="702.896729"/><line class="st1" x1="460.148621" x2="468.280731" y1="578.51239" y2="702.032654"/><line class="st1" x1="409.705048" x2="422.745667" y1="578.90155" y2="702.992188"/></g><g><circle class="st2" cx="328.093933" cy="271.17218" r="27.166559"/><circle class="st2" cx="416.466705" cy="287.855469" r="27.166559"/><circle class="st2" cx="769.691101" cy="220.03215" r="27.166559"/></g><g><path class="st3" d="M334.042664,261.434296c0.547974-0.926361,1.009399-2.033173,1.323242-3.25708    c0.99173-3.867432,0.140839-7.426987-1.900604-7.950546c-2.041443-0.523544-4.500397,2.187271-5.492157,6.054764    c-0.313904,1.223907-0.442017,2.416168-0.407471,3.491882c-4.846283,0.230743-9.183838,3.574615-10.451996,8.519836    c-1.557312,6.072693,2.103119,12.257935,8.175751,13.815216c6.072601,1.557312,12.257904-2.103119,13.815125-8.175751    C340.372742,268.987396,338.179779,263.968842,334.042664,261.434296z"/><path class="st3" d="M419.597473,276.882233c0.280548-1.039154,0.429474-2.228973,0.404877-3.492188    c-0.077545-3.991852-1.848602-7.194702-3.95575-7.153748c-2.107025,0.040955-3.75238,3.31015-3.674805,7.301971    c0.024567,1.263336,0.219513,2.446411,0.540283,3.473816c-4.608429,1.517181-7.894806,5.898407-7.795624,11.002716    c0.121735,6.267944,5.301636,11.250366,11.56955,11.128601c6.267944-0.121765,11.250366-5.301697,11.128601-11.56958    C427.715424,282.469513,424.261322,278.219177,419.597473,276.882233z"/><path class="st3" d="M778.699219,213.125031c-3.088501-4.073151-8.391846-5.473785-12.953064-3.799606    c-0.384705-1.008728-0.944824-2.057831-1.711182-3.068558c-2.412354-3.181442-5.729248-4.728271-7.40863-3.454926    c-1.67926,1.273361-1.085083,4.88472,1.327209,8.066177c0.766418,1.010788,1.625427,1.833206,2.49292,2.475922    c-2.843079,3.940109-2.925842,9.424606,0.162537,13.497757c3.787842,4.995407,10.908081,5.974472,15.903503,2.186676    C781.507935,225.240662,782.487,218.120438,778.699219,213.125031z"/><path class="st3" d="M923.794739,720.072266c-284.740112-39.085205-693.777588-19.49646-817.036865,20.120422    c0.000221,0.000305,0.000366,0.00061,0.000587,0.000977c0.707146,1.145325,1.425209,2.268494,2.152138,3.370972    c0.012764,0.019409,0.025604,0.038635,0.038368,0.058044c18.316795,27.746887,42.455086,41.965149,51.126793,46.435364    c0.010391,0.005371,0.020142,0.010315,0.030548,0.015625c0.325409,0.167603,0.62767,0.320618,0.907928,0.460693    c0.030106,0.015076,0.059479,0.029663,0.089066,0.044434c0.249344,0.124207,0.47847,0.236755,0.688766,0.338806    c0.044052,0.021362,0.088928,0.043213,0.13121,0.06366c0.185501,0.089478,0.353317,0.169312,0.504074,0.240417    c0.038956,0.018372,0.081757,0.038696,0.118286,0.055786c0.137756,0.064453,0.256058,0.11908,0.359146,0.166199    c0.028839,0.013184,0.065231,0.03009,0.091278,0.04187c0.091202,0.041382,0.161606,0.072998,0.217453,0.097778    c0.014984,0.006653,0.040741,0.01825,0.052994,0.023682c0.050766,0.022339,0.086411,0.037781,0.086411,0.037781    l711.639343,27.028503c0,0,6.062073-7.644287,14.549072-19.244873    C900.568237,782.752014,915.229675,755.694641,923.794739,720.072266z"/></g><g><ellipse class="st0" cx="591.615112" cy="843.267578" rx="323.055878" ry="58.601559"/><ellipse class="st0" cx="288.867218" cy="789.972839" rx="169.793488" ry="23.199711"/></g><g><path class="st4" d="M652.834534,858.447144c71.610046-4.76123,106.469055-22.243164,85.39624-35.911072    c-45.619202-29.588867-320.871033-36.282776-372.906219,3.264465s78.710724,52.692688,116.235748,51.753723"/><path class="st4" d="M468.734863,856.599792c-21.230743-18.481812,29.607025-41.142883,107.086121-43.427246    c77.479065-2.284424,204.024353-0.628357,242.37146,12.627991c38.347046,13.256409-99.507812,55.6026-208.894226,51.800232    c-109.386444-3.802307-89.928345-44.443237-60.032104-48.535706"/><path class="st4" d="M304.594757,243.33757c0,0,260.886261,88.816574,488.464569-62.82225"/></g></g><g id="Christmas_tree"><polygon class="st5" points="240.052979,698.925293 240.052979,773.92334 282.728333,773.92334 282.728333,696.245789  "/><path class="st6" d="M370.705475,562.228271c5.011932,4.135437,11.301849,7.875793,18.594543,9.246643   c19.4086,3.648254,35.873505-0.000061,35.873505-0.000061c-41.521301-33.769897-69.376556-70.746521-85.367218-110.507111   c3.73407,2.213593,8.457489,4.234222,14.307983,5.436981c15.598389,3.206604,35.18573-0.942627,35.18573-0.942627   c-49.163422-36.443573-79.130737-80.585754-93.78186-130.870422c5.483673,3.310883,12.042084,6.45285,18.733643,7.771881   c20.048401,3.951843,27.730469-7.2966,27.730469-7.2966c-48.265076-34.394745-77.296936-74.348145-90.302628-118.933578   c-16.24968,47.289383-47.085968,88.823471-99.477615,121.85228c0,0,7.825912,10.760651,29.463623,3.648254   c20.408188-6.708344,28.597-23.348938,28.597-23.348938s-1.915695,7.836517-0.67099,15.218994   c-13.618546,48.428894-41.425385,91.952271-85.120026,129.982056c0,0,14.729187-0.020508,32.929901-5.107483   c8.758865-2.448029,15.960556-7.497314,20.18277-10.992462c-19.28952,48.862793-49.30014,93.544891-91.241936,133.57431   c0,0,25.997177,5.107544,44.19532-2.91864c18.198059-8.026123,21.664413-17.511719,21.664413-17.511719   s-0.886459,11.057495,4.019577,18.625366c-19.800949,46.373047-57.776886,95.796387-112.341629,141.89856   c0,0,21.398632,7.818726,49.087551,0c21.077492-5.951782,33.596764-20.393188,40.370255-30.935852   c-7.244431,13.329407-15.684799,33.075684,0.666107,35.151672c24.264114,3.08075,45.928528-29.024048,45.928528-29.024048   s-6.06604,24.808228,14.731857,24.078552c20.797806-0.729614,25.997238-30.757324,25.997238-30.757324   s1.733154,27.10907,20.797821,27.10907s25.997314-17.384705,25.997314-17.384705s11.265503,22.49231,32.92984,22.49231   c21.664429,0,18.198151-29.186157,18.198151-29.186157s15.598358,22.619263,36.396179,25.537903   c20.797821,2.918579,16.464905-36.482727,16.464905-36.482727s9.532349,27.728821,30.33017,27.363037   c20.059601-0.352844,10.295044-22.339661,9.576233-23.900635c0.580963,1.243286,7.745331,15.871216,26.819946,23.900635   c19.931305,8.390015,40.729095-0.000122,40.729095-0.000122C431.205627,662.525146,394.016907,613.831604,370.705475,562.228271z    M137.994995,681.949829c1.439606-2.861633,2.075027-4.466431,2.075027-3.945435   C140.070023,678.363342,139.251526,679.797485,137.994995,681.949829z"/><g><path class="st7" d="M152.202057,337.985657c0,0,7.825851,10.760681,29.463608,3.648224    c20.408188-6.708282,28.597015-23.348907,28.597015-23.348907s-6.066025,24.808228,10.398911,27.726837    s22.530975-18.971008,22.530975-18.971008s6.932617,20.236511,21.664398,19.238922    c14.731812-0.997559,16.464966-22.157532,16.464966-22.157532s16.054626,14.914948,32.929871,18.241364    c20.04837,3.951874,27.730469-7.29657,27.730469-7.29657"/><path class="st7" d="M124.471634,463.486053c0,0,14.729172-0.020538,32.929901-5.107513    c14.149948-3.954803,24.25647-14.708527,24.25647-14.708527s-9.841736,16.783478,5.481873,20.123932    s37.854599-25.116058,37.854599-25.116058s-4.332886,30.491791,14.731796,30.933441    c19.064682,0.441681,27.730423-25.941315,27.730423-25.941315s17.331543,28.418274,36.39621,25.941315    c19.064667-2.476929,24.26413-19.410858,24.26413-19.410858s7.172974,12.334503,25.997284,16.204254    c15.598358,3.206604,35.18573-0.942627,35.18573-0.942627"/><path class="st7" d="M86.342377,580.960449c0,0,25.997208,5.107544,44.195297-2.91864s21.664413-17.511719,21.664413-17.511719    s-2.007919,24.808228,16.464935,25.537903s49.394836-34.293762,49.394836-34.293762s-6.583557,29.186218,11.006729,29.915833    c17.590286,0.729675,27.817245-21.889587,27.817245-21.889587s8.837708,18.971008,27.902405,18.971008    c19.064667,0,18.19809-18.971008,18.19809-18.971008s19.064667,22.619263,46.795105,20.430298    s7.799194-32.834412,7.799194-32.834412s12.31076,20.430298,31.71936,24.078552    c19.40863,3.648254,35.873566-0.000061,35.873566-0.000061"/><path class="st7" d="M43.880024,721.053955c0,0,21.398624,7.818787,49.087605,0.000061    c36.062477-10.183228,47.102394-45.238586,47.102394-43.049622s-30.33017,44.184631-6.06604,47.265381    s45.928528-29.023987,45.928528-29.023987s-6.066025,24.808228,14.731796,24.078552s25.997284-30.757385,25.997284-30.757385    s1.733154,27.109131,20.797836,27.109131s25.997269-17.384766,25.997269-17.384766s11.265503,22.49231,32.929901,22.49231    s18.19809-29.186157,18.19809-29.186157s15.598389,22.619263,36.39621,25.537903s16.464935-36.482666,16.464935-36.482666    s9.532349,27.72876,30.33017,27.362976s9.532349-23.9953,9.532349-23.9953s6.932587,15.605225,26.863861,23.9953    c19.931244,8.390015,40.729065-0.000061,40.729065-0.000061"/></g><path class="st2" d="M405.584198,779.785583c11.735504-2.42804-6.093353-25.388977-22.850098-26.912292   c-16.756714-1.523376-20.311188-1.523376-25.896759-3.046692c-5.585571-1.523376-27.927887-24.816956-50.777985-24.341309   s-49.762421,25.381836-64.488037,27.146545c-14.725616,1.764771-31.990143-2.272522-44.176849,0   c-12.186722,2.272522-22.702423,22.075989-29.123505,23.599304s-16.067612,0.416199-16.068909,6.093384   C152.19812,799.571899,346.681732,791.97229,405.584198,779.785583z"/><g><path class="st8" d="M223.034088,280.159058c0,0,25.043564,27.939911,78.509613,31.589386"/><path class="st8" d="M170.770309,470.330994c0,0,76.960358,63.860474,205.707138,59.744507"/><path class="st8" d="M112.637772,659.761414c0,0,117.65799,23.709473,270.838928-66.038208"/><path class="st8" d="M299.669464,368.670715c0,0-57.068008,37.167999-123.999634,45.622528"/><path class="st8" d="M296.726257,447.780396c0,0-10.531708-28.304688-0.01297-28.304688    C306.511841,419.475708,296.726257,447.780396,296.726257,447.780396z"/><path class="st8" d="M192.420898,563.49823c0,0-12.808334-34.423279-0.015762-34.423279    C204.321808,529.074951,192.420898,563.49823,192.420898,563.49823z"/></g><circle class="st9" cx="289.415344" cy="375.968689" r="7.297971"/><g><circle class="st2" cx="233.951096" cy="288.913483" r="7.790878"/><circle class="st2" cx="257.897339" cy="302.373962" r="7.790878"/><circle class="st2" cx="284.99707" cy="309.491669" r="7.790878"/><circle class="st2" cx="184.954773" cy="480.242554" r="7.450366"/><circle class="st2" cx="359.672729" cy="530.266296" r="7.450366"/><circle class="st2" cx="267.411682" cy="516.974243" r="7.450366"/><circle class="st2" cx="211.607712" cy="494.944641" r="7.450366"/><circle class="st2" cx="238.260666" cy="508.500153" r="7.450366"/><circle class="st2" cx="299.51709" cy="524.424622" r="7.450366"/><circle class="st2" cx="330.194977" cy="527.973877" r="7.450366"/><circle class="st2" cx="369.458069" cy="600.241089" r="7.018786"/><circle class="st2" cx="261.615997" cy="645.446533" r="7.018786"/><circle class="st2" cx="127.627533" cy="661.689819" r="7.018786"/><circle class="st2" cx="319.009796" cy="626.035156" r="7.018786"/><circle class="st2" cx="291.422211" cy="637.253235" r="7.018786"/><circle class="st2" cx="344.19455" cy="614.334839" r="7.018786"/><circle class="st2" cx="193.548325" cy="659.425781" r="7.018786"/><circle class="st2" cx="227.40152" cy="654.156738" r="7.018786"/><circle class="st2" cx="159.198746" cy="662.876526" r="7.018786"/><circle class="st2" cx="242.725952" cy="396.551453" r="7.297971"/><circle class="st2" cx="216.106857" cy="404.346893" r="7.297971"/><circle class="st2" cx="189.110733" cy="411.644867" r="7.297971"/><circle class="st2" cx="266.282104" cy="385.753021" r="7.297971"/><circle class="st2" cx="289.415344" cy="375.968689" r="7.297971"/><path class="st8" d="M226.170135,341.386444c0,0-8.059814-21.661316-0.009918-21.661316    C233.658936,319.725128,226.170135,341.386444,226.170135,341.386444z"/></g><polygon class="st10" points="239.397964,185.048798 253.848434,136.042816 264.665466,188.219086 312.209076,198.144501    271.83136,214.295593 283.1203,258.538605 250.855591,228.821243 210.577377,250.878357 227.66098,210.864136    196.984238,184.676666  "/><g><polyline class="st11" points="253.545822,147.11673 251.472839,204.147781 219.318619,242.33345   "/><polyline class="st11" points="203.49884,186.873306 251.472839,204.147781 302.539459,198.922134   "/><polyline class="st11" points="240.874252,187.672089 251.472839,204.147781 277.688141,249.788742   "/><polyline class="st11" points="263.490082,189.420624 251.472839,204.147781 250.827499,225.881744   "/><polyline class="st11" points="229.979477,210.13414 251.472839,204.147781 269.657959,213.093216   "/></g><g><path class="st10" d="M223.72673,347.147461c0,0-1.413223-5.696625,2.443405-5.761017    c3.856613-0.064392,2.38623,5.816559,2.38623,5.816559L223.72673,347.147461z"/><path class="st10" d="M293.533478,455.308289c0,0-1.846649-7.443726,3.19278-7.527893    c5.039429-0.084137,3.118073,7.600494,3.118073,7.600494L293.533478,455.308289z"/><path class="st10" d="M188.537933,572.653381c0,0-2.245819-9.052795,3.882965-9.155151    c6.128769-0.102356,3.792114,9.243469,3.792114,9.243469L188.537933,572.653381z"/><path class="st10" d="M359.258911,656.944397c0,0-1.846649-7.443787,3.19278-7.527893    c5.039398-0.084167,3.118073,7.600464,3.118073,7.600464L359.258911,656.944397z"/></g><g><circle class="st12" cx="226.160217" cy="359.894928" r="13.01054"/><circle class="st12" cx="296.713287" cy="471.965302" r="17.000784"/><circle class="st12" cx="192.405136" cy="592.911133" r="20.675816"/><circle class="st12" cx="362.438721" cy="673.601379" r="17.000784"/></g><path class="st8" d="M362.451691,649.416504c0,0-10.531708-28.304688-0.01297-28.304688   C372.237274,621.111816,362.451691,649.416504,362.451691,649.416504z"/></g><g id="young_woman"><g><polygon class="st13" points="562.927185,545.414124 588.939636,686.885498 626.817505,686.885498 626.817505,545.414124   "/><path class="st13" d="M729.498352,515.76532c0,0,38.790527,36.292847,40.159607,57.157837    c1.36908,20.865051-40.159607,65.218201-40.159607,65.218201l-28.163208-27.633789l19.103455-39.526794l-48.441528-35.150208    L729.498352,515.76532z"/><path class="st13" d="M599.582214,242.901245c0,0-17.127502-14.324234-39.607361-0.080383    c-22.479797,14.243866-21.101196,34.012726-29.283813,45.537659c-8.182556,11.524933-30.662384,3.564728-43.508026,16.643829    c-12.845612,13.079071,4.281891,33.944702-5.352325,45.456482c-9.634216,11.51181-26.761719,13.151611-29.973114,33.741089    c-3.211395,20.589447,11.775146,22.506744,10.704681,35.99942s-17.127502,26.9487,5.352356,49.658569    c22.479828,22.709869,62.087158,3.563599,74.9328,4.572968c12.845581,1.009399,50.312012,24.752686,85.637451,19.839081    c35.325439-4.913574,55.664368-31.163147,71.721375-37.306793s43.889221,8.646179,51.382507-15.876251    c7.493286-24.5224-6.422852-26.904266-7.493286-36.953247c-1.070496-10.048981,9.634216-10.769623,5.352356-31.283417    c-4.281921-20.513824-37.466431-32.929871-43.889221-50.272156c-6.422852-17.342285-5.352356-24.355133-23.550293-36.370483    c-18.197998-12.015381-21.351501-15.356384-21.351501-15.356384c-4.109924-26.7146-18.630676-35.213455-32.726074-36.229324    C612.570251,233.514847,599.582214,242.901245,599.582214,242.901245z"/></g><polygon class="st14" points="595.763,310.949982 584.549377,333.472778 635.482605,343.832764 635.482605,326.707062  "/><g><path class="st15" d="M622.710266,837.48407c0,0-63.375671,19.978394-74.386597,12.676636    c-11.010925-7.301697-1.252502-16.783875,4.165527-18.152954"/><path class="st15" d="M633.63562,695.903564c0,0,40.80658,52.444519,54.016296,52.690613    c13.209656,0.246033,10.565491-13.101074,6.884338-17.305725"/></g><path class="st16" d="M646.415588,286.001831c-17.324524-3.031067-21.024963-19.171295-21.024963-19.171295   s0.168274,11.942169-10.525818,20.098114c-8.897156,6.78537-22.355774,6.065552-26.630798,5.631958   c1.065002,7.806183,7.910095,44.726227,41.957031,42.723511c29.558411-1.738739,24.988525-34.900635,21.472839-49.62851   C650.174988,286.195557,648.432007,286.354645,646.415588,286.001831z"/><g><path class="st17" d="M633.240601,299.876007c0,0,0.806946,3.663025,5.287292,4.850494    c3.611328,0.957153,3.177979,6.13205-1.525208,6.22348"/><path class="st17" d="M626.343872,315.228973c0.14093,1.476837,2.531311,4.468689,5.846313,3.291626"/></g><path class="st10" d="M713.982117,209.077225l-39.703247,34.921844c0,0,10.952637,21.666702,9.127136,55.876907   c-1.344604,25.200806-14.560364,43.233734-21.43219,50.991058c-2.794861-1.671814-4.457092-2.4599-4.457092-2.4599   l-82.466919,3.700348c0,0-25.813416-11.142395-29.007935-48.425415c-3.194519-37.283112,13.933044-60.861237,13.933044-60.861237   l-49.072723-26.441849c0,0-41.528717,33.770615-41.985046,91.3564c-0.45639,57.585754,43.810516,99.120941,43.810516,99.120941   s-11.409027,20.817017-18.254395,56.574921c-6.845428,35.757965,0,76.555389,0,76.555389   c79.399658,21.236267,194.409058,14.161865,246.890442-24.221313c0,0-0.91272-36.523346-21.448914-92.093628   c-1.430786-3.871643-2.973633-7.551178-4.590088-11.080048c14.797119-17.590973,35.588867-50.274353,38.469543-97.362732   C758.330994,241.070938,713.982117,209.077225,713.982117,209.077225z"/><g><path class="st13" d="M617.553162,298.478149c0,0,0.988953,5.652588,3.155518,5.175293    c2.273682-0.500885,0.652832-5.67337,0.652832-5.67337S620.057678,297.926422,617.553162,298.478149z"/><path class="st13" d="M639.84198,294.104584c0,0,0.988953,5.652588,3.155518,5.175293    c2.273682-0.500885,0.652832-5.67337,0.652832-5.67337S642.346497,293.552856,639.84198,294.104584z"/></g><g><path class="st18" d="M583.817017,748.494019l50.320007,6.389038l-7.319519,60.239441c0,0-63.89032,9.583496-73.017517-2.738159    c-9.127197-12.321716,32.401489-26.925232,32.401489-26.925232L583.817017,748.494019z"/><path class="st18" d="M675.647949,630.733276l38.009888,36.528748l-19.004944,23.879089    c0,0,13.852905,26.776794,2.900269,34.534912s-48.950989-44.723206-48.950989-44.723206L675.647949,630.733276z"/><path class="st2" d="M539.777283,234.066452c19.587402,15.649506,18.116211,23.396469,34.095642,16.545288    s2.31012-32.466965-12.293396-45.701385s-45.73114-15.114868-54.328217-5.873016    C488.996948,218.660797,520.189941,218.416931,539.777283,234.066452z"/><path class="st2" d="M657.863831,248.490479c12.661987,8.810059,29.193054-12.488022,41.514771-21.615219    c12.321716-9.127182,32.40155-18.254364,17.798035-35.596024s-36.965088,2.472198-47.005005,12.416901    S642.361572,237.704193,657.863831,248.490479z"/><circle class="st2" cx="627.997742" cy="406.856354" r="6.980264"/><circle class="st2" cx="634.978027" cy="459.839081" r="6.980264"/><circle class="st2" cx="638.173828" cy="519.549805" r="6.980264"/></g><g><line class="st19" x1="616.476135" x2="616.476135" y1="818.307861" y2="839.371948"/><line class="st19" x1="594.872314" x2="594.872314" y1="819.817444" y2="845.284241"/><line class="st19" x1="571.069458" x2="571.069458" y1="819.817444" y2="850.356079"/><line class="st19" x1="653.289307" x2="639.84198" y1="689.931763" y2="703.642029"/><line class="st19" x1="668.730652" x2="655.483704" y1="708.202393" y2="721.926025"/><line class="st19" x1="684.341187" x2="671.99707" y1="723.069153" y2="738.795959"/><line class="st19" x1="692.989563" x2="699.668945" y1="706.799316" y2="703.642029"/><line class="st19" x1="688.690186" x2="696.329285" y1="696.317017" y2="694.716248"/><line class="st19" x1="692.509705" x2="699.668945" y1="675.932861" y2="684.838623"/><line class="st19" x1="697.553162" x2="705.974548" y1="667.262024" y2="676.915833"/><line class="st19" x1="584.702576" x2="594.872314" y1="762.222595" y2="762.222595"/><line class="st19" x1="585.408081" x2="594.872314" y1="773.15918" y2="773.15918"/><line class="st19" x1="579.17395" x2="584.702576" y1="788.219055" y2="797.780823"/><line class="st19" x1="568.984558" x2="573.879822" y1="792.999939" y2="801.888062"/><path class="st19" d="M710.868469,670.766785c0,0,20.495178-11.449646,22.820923,0    C736.015076,682.216431,710.868469,670.766785,710.868469,670.766785z"/><path class="st19" d="M719.100769,684.838623c-0.634277-2.199341-8.2323-14.071838-8.2323-14.071838l-2.761963,14.071838"/><path class="st19" d="M710.868469,670.766785c0,0,0.380188-19.756042,10.552917-15.88623    C731.594177,658.750366,710.868469,670.766785,710.868469,670.766785z"/><path class="st19" d="M584.276917,755.894836c0,0-10.888794-20.798584-19.10083-12.487976    C556.963989,751.717407,584.276917,755.894836,584.276917,755.894836z"/><path class="st19" d="M569.686157,763.167969c1.734436-1.493774,14.590759-7.273132,14.590759-7.273132l-5.388672,13.289368"/><path class="st19" d="M584.276917,755.894836c0,0,10.492676-16.743652-0.139465-19.071411    C573.505371,734.495728,584.276917,755.894836,584.276917,755.894836z"/><path class="st19" d="M614.864746,299.752167c0,0,3.604614-2.328064,7.545837-1.662323"/><path class="st19" d="M637.153564,295.378601c0,0,3.604675-2.328064,7.545837-1.662323"/><path class="st19" d="M612.607544,292.396851c0,0,3.489868-3.027588,9.313904-2.52301"/><path class="st19" d="M635.482605,287.855469c0,0,2.82196-2.52298,8.727661-1.682007"/></g><g><polygon class="st12" points="581.432556,679.385498 631.193542,679.385498 626.817505,764.466614 592.134155,760.359375   "/><polygon class="st12" points="697.553162,599.353943 738.625549,634.1828 705.117065,664.980225 679.755188,641.249573   "/><path class="st12" d="M575.099121,289.817108c0,0-1.030701-18.647614,6.333435-30.555511    c8.741943-14.135773,26.367798-12.674667,33.43219-11.940491c-14.972473,1.716644-22.476013,5.998123-28.328064,18.016205    c-5.886963,12.089813-3.943115,24.479797-3.943115,24.479797H575.099121z"/><path class="st12" d="M581.432556,323.177277c-5.583374-1.881256-21.167358,22.034088-9.865601,30.275848    c36.541443,26.647705,78.717163,10.698517,86.296875-0.841003c4.763977-7.252747-1.324646-25.822235-8.588867-23.709412    C637.153564,332.428223,617.873596,335.455811,581.432556,323.177277z"/><path class="st12" d="M578.463135,352.107544c0,0-29.09845,36.667389-35.826416,79.389984s-2.859436,80.903778-2.859436,80.903778    c22.851624,6.581238,45.956177,7.587402,69.298096,3.364014c0,0-17.829102-58.19693-14.296936-97.387329    s7.821411-59.206085,7.821411-59.206085L578.463135,352.107544z"/><path class="st12" d="M648.602173,357.489899c0,0,14.969727,25.229889,16.819885,90.827545    c1.85022,65.597656-16.315308,171.899536-16.315308,171.899536l56.010315,11.942139c0,0,32.630615-83.258606,12.951355-169.544739    c-19.679321-86.286163-60.551697-114.207214-60.551697-114.207214L648.602173,357.489899z"/><path class="st12" d="M599.890686,203.701538c0,0,7.76178,0.810013,5.936218,8.741074    c-1.329895,5.791168-21.181702,7.169373-31.748413,7.495834c-3.494019-5.585587-7.955261-10.905243-12.501099-15.027908    c-6.141724-5.561371-15.197205-9.127945-24.276733-10.687607c12.597778-11.400894,70.629944-22.07634,77.56958-9.805008    C622.075928,197.184998,599.890686,203.701538,599.890686,203.701538z"/><path class="st12" d="M687.180725,189.834244c-6.806702,4.146942-12.924255,9.817169-17.010681,13.867294    c-4.521667,4.485428-10.627136,11.836121-14.544312,19.561661c-8.644348-0.253922-20.38385-1.402405-22.390747-5.766968    c-3.228027-7.048431,3.844666-8.414612,3.844666-8.414612s-21.508179-7.483734-16.660034-19.464996    C624.929138,178.43335,662.770935,176.232956,687.180725,189.834244z"/></g><g><polygon class="st20" points="584.539795,702.896729 629.984253,702.896729 631.193542,679.385498 581.432556,679.385498   "/><path class="st20" d="M711.759766,611.401428c-3.639099,13.093567-6.906616,21.761902-6.906616,21.761902l18.633972,14.931396    l15.136658-13.915649L711.759766,611.401428z"/><circle class="st20" cx="581.432556" cy="307.735382" r="21.167334"/></g><g><line class="st21" x1="590.217041" x2="593.31311" y1="682.190552" y2="699.893127"/><line class="st21" x1="606.313049" x2="606.313049" y1="682.190552" y2="699.893127"/><line class="st21" x1="620.521423" x2="620.521423" y1="682.190552" y2="699.893127"/><line class="st21" x1="719.100769" x2="709.190369" y1="622.181885" y2="632.47644"/><line class="st21" x1="730.937317" x2="720.844055" y1="631.81366" y2="641.156128"/></g><g><path class="st8" d="M634.137024,369.432037c0,0,21.330322,47.095764,20.015686,174.422516"/><g><line class="st8" x1="545.863831" x2="590.430542" y1="479.879547" y2="480.665253"/><polyline class="st8" points="542.930237,476.392487 546.370544,480.141479 542.079956,483.186768    "/><polyline class="st8" points="593.878052,484.11618 590.183777,480.602356 594.251221,477.281036    "/><polyline class="st8" points="548.424377,474.184113 554.194092,480.471527 546.998413,485.578705    "/><polyline class="st8" points="587.771729,486.324341 581.576477,480.431793 588.397522,474.862    "/><line class="st8" x1="556.711426" x2="579.655457" y1="498.814026" y2="461.731171"/><polyline class="st8" points="552.137146,499.53421 557.197937,498.519104 557.772583,503.652466    "/><polyline class="st8" points="584.453979,460.560699 579.476196,461.907196 578.544006,456.823181    "/><polyline class="st8" points="552.909668,493.807953 561.397034,492.10556 562.360718,500.71463    "/><polyline class="st8" points="583.375793,466.801636 575.028198,469.059631 573.464905,460.533936    "/><line class="st8" x1="579.210999" x2="557.588379" y1="499.210693" y2="461.342133"/><polyline class="st8" points="583.75708,500.091675 578.735168,498.898804 577.97998,504.008728    "/><polyline class="st8" points="552.834045,460.003265 557.761292,461.524353 558.872131,456.476379    "/><polyline class="st8" points="583.18689,494.341736 574.764771,492.341217 573.49823,500.911011    "/><polyline class="st8" points="553.69165,466.27832 561.954468,468.829163 563.817322,460.363831    "/><ellipse class="st8" cx="568.183411" cy="480.273041" rx="7.118222" ry="7.331002" transform="matrix(0.017627 -0.999845 0.999845 0.017627 77.969536 1039.902344)"/></g><g><line class="st8" x1="663.504333" x2="706.920471" y1="588.790649" y2="598.882874"/><polyline class="st8" points="661.365234,584.766968 663.945068,589.152771 659.112305,591.233032    "/><polyline class="st8" points="709.569702,602.978699 706.692322,598.769714 711.364624,596.372864    "/><polyline class="st8" points="667.199829,583.756958 671.526428,591.112305 663.421509,594.601013    "/><polyline class="st8" points="703.136536,603.860474 698.311218,596.802185 706.146545,592.782715    "/><line class="st8" x1="670.150574" x2="700.345093" y1="609.575562" y2="578.113525"/><polyline class="st8" points="665.526855,609.322815 670.688049,609.388916 670.176025,614.528931    "/><polyline class="st8" points="705.282288,577.972839 700.132935,578.248108 700.285034,573.081604    "/><polyline class="st8" points="667.480286,603.884888 676.135986,603.995789 675.277283,612.616028    "/><polyline class="st8" points="702.922241,583.850098 694.286987,584.311707 694.541992,575.647583    "/><line class="st8" x1="692.069275" x2="678.847717" y1="614.670593" y2="573.116333"/><polyline class="st8" points="696.330444,616.483215 691.66925,614.266113 689.861694,619.104919    "/><polyline class="st8" points="674.478699,570.812439 678.978699,573.33075 681.121033,568.626831    "/><polyline class="st8" points="696.97583,610.741211 689.15863,607.022949 686.127197,615.138123    "/><polyline class="st8" points="674.004517,577.128052 681.550781,581.351135 685.143433,573.462891    "/><ellipse class="st8" cx="685.247742" cy="593.844971" rx="7.118222" ry="7.331002" transform="matrix(0.226417 -0.974031 0.974031 0.226417 -48.32692 1126.840698)"/></g></g><g><path class="st22" d="M599.892273,203.696136c0,0-6.845398-1.190994-13.690796-1.783997"/><path class="st22" d="M637.083557,209.077225c0,0,7.231995-2.738129,14.683716-2.738129"/><path class="st22" d="M601.226379,366.572449c0,0-12.248901-2.029724-25.747681-10.443115"/><path class="st22" d="M649.677124,359.574677c0,0,7.825317-3.125092,9.432434-9.960327"/><line class="st22" x1="687.825195" x2="705.117065" y1="628.696106" y2="632.159119"/></g></g></svg>